hpl_overground_slow_walk_RRA_states
nRows=8
nColumns=47

# SIMM Motion File Header:
name hpl_overground_slow_walk_RRA_states
datacolumns 47
datarows 8
otherdata 1
range 1.17999999999998060000 1.18349999999998020000
endheader
time	pelvis_tx	pelvis_ty	pelvis_tz	pelvis_tilt	pelvis_list	pelvis_rotation	hip_flexion_r	hip_adduction_r	hip_rotation_r	knee_angle_r	ankle_angle_r	subtalar_angle_r	mtp_angle_r	hip_flexion_l	hip_adduction_l	hip_rotation_l	knee_angle_l	ankle_angle_l	subtalar_angle_l	mtp_angle_l	lumbar_extension	lumbar_bending	lumbar_rotation	pelvis_tx_u	pelvis_ty_u	pelvis_tz_u	pelvis_tilt_u	pelvis_list_u	pelvis_rotation_u	hip_flexion_r_u	hip_adduction_r_u	hip_rotation_r_u	knee_angle_r_u	ankle_angle_r_u	subtalar_angle_r_u	mtp_angle_r_u	hip_flexion_l_u	hip_adduction_l_u	hip_rotation_l_u	knee_angle_l_u	ankle_angle_l_u	subtalar_angle_l_u	mtp_angle_l_u	lumbar_extension_u	lumbar_bending_u	lumbar_rotation_u
      1.17999999999998060000	      0.03125549343308897000	      0.87575793705737548000	     -0.27395098442380889000	     20.38494952102076900000	     -2.85279869584763950000	      7.35724686365249350000	    -11.34382216934376700000	      8.39231373720097370000	      7.16487173322042810000	    -19.37533722502151100000	      8.74883776746528420000	      0.00000000000002318986	     -0.00000000000001967267	     -2.84838415705176520000	     -8.61033800845382120000	     -0.95127473112836558000	    -64.36812441837277300000	      1.79467068813916280000	     -0.00000000000006553969	      0.00000000000122565466	    -27.86332986117890100000	      7.70249083512914370000	     -2.00988854917423020000	      1.58627199316772670000	      0.46813724685679081000	      0.03519122048522862300	     19.42904727107310900000	     44.87718079054879900000	    -81.03035497870809000000	   -226.55755699936498000000	    -64.60468454738783400000	     85.94780629484095900000	    159.30447910799984000000	    -11.00524390585766600000	      0.00000000000038296072	     -0.00000000000027327618	     84.68106017156210900000	     76.82687606969112400000	    -67.85230872767319000000	    175.69516894791579000000	    142.34880848371046000000	      0.00000000000004700845	      0.00000000000280393708	    -31.75189203314646500000	    -78.07357308476835600000	     71.15145926721329800000
      1.18049999999998060000	      0.03204850456125561700	      0.87599183948794435000	     -0.27393341239047042000	     20.39469210885095800000	     -2.83034812905461350000	      7.31667028321561650000	    -11.45713430068421700000	      8.35989843840414610000	      7.20782689489580710000	    -19.29559708439221300000	      8.74321290543421450000	      0.00000000000002338173	     -0.00000000000001981327	     -2.80622024597782980000	     -8.57191070628368660000	     -0.98529623322889703000	    -64.27988439511756300000	      1.86543209624993040000	     -0.00000000000006551624	      0.00000000000122705661	    -27.87923540724483100000	      7.66342391320212450000	     -1.97430631610146050000	      1.58577224485139400000	      0.46746937384495252000	      0.03509730043323285000	     19.54112811769094200000	     44.92448940892281000000	    -81.27520488959868300000	   -226.69023165757787000000	    -65.05581780140555300000	     85.87133631019342800000	    159.65533618204648000000	    -11.49366353877053000000	      0.00000000000038099922	     -0.00000000000026630943	     83.97500212085655800000	     76.88142432574596800000	    -68.23257660316267000000	    177.26423132576190000000	    140.69718080506280000000	      0.00000000000004679751	      0.00000000000280358903	    -31.87000531568233800000	    -78.19342215791039100000	     71.17706872185080200000
      1.18099999999998050000	      0.03284126538787705100	      0.87622540329845355000	     -0.27391588674964606000	     20.40449045641895500000	     -2.80787480571197270000	      7.27597242831714740000	    -11.57051163475556200000	      8.32725861686529710000	      7.25074157755982810000	    -19.21568266919021200000	      8.73734497128489980000	      0.00000000000002356895	     -0.00000000000001993825	     -2.76440871039147670000	     -8.53345748956443550000	     -1.01950617283555190000	    -64.19086089093329400000	      1.93536822195879820000	     -0.00000000000006549252	      0.00000000000122845826	    -27.89519956327729100000	      7.62429811029536350000	     -1.93871189166312810000	      1.58527075696270340000	      0.46678270443460174000	      0.03500562318148160000	     19.65205224625978900000	     44.96820255081070200000	    -81.51543734547088600000	   -226.81830854289504000000	    -65.50276563203443900000	     85.78591519330659300000	    160.00151009379829000000	    -11.97684612351832100000	      0.00000000000036799059	     -0.00000000000022698353	     83.27161239289618800000	     76.93054016295909000000	    -68.60603478319632100000	    178.82906842017954000000	    139.04767327918864000000	      0.00000000000004816620	      0.00000000000280269283	    -31.98629890474325100000	    -78.30908745129049500000	     71.20021092382198400000
      1.18149999999998050000	      0.03363377503950996200	      0.87645861906849243000	     -0.27389840638955537000	     20.41434396216143600000	     -2.78538053223642780000	      7.23515561891892120000	    -11.68395183850420200000	      8.29439638293382230000	      7.29361131643707950000	    -19.13559635955188300000	      8.73123689326575200000	      0.00000000000002375209	     -0.00000000000002004308	     -2.72294818869673440000	     -8.49498107490472170000	     -1.05390112426488810000	    -64.10105600939925800000	      2.00448015490166130000	     -0.00000000000006546849	      0.00000000000122985947	    -27.91122139587804100000	      7.58511552953857570000	     -1.90310651405967280000	      1.58476759774064550000	      0.46607729116979796000	      0.03491621159044656900	     19.76178206906884300000	     45.00828209085007400000	    -81.75103105720647500000	   -226.94176118568183000000	    -65.94545317713928500000	     85.69153209127733800000	    160.34297430585895000000	    -12.45501356291185300000	      0.00000000000036298141	     -0.00000000000017716466	     82.57089343481247600000	     76.97420446515543800000	    -68.97262947913601700000	    180.38980731453961000000	    137.40047997248456000000	      0.00000000000004904152	      0.00000000000280100564	    -32.10073012468113500000	    -78.42053066888927000000	     71.22089918971458600000
      1.18199999999998040000	      0.03442603271967999800	      0.87669147746813325000	     -0.27388097015907020000	     20.42425203068260600000	     -2.76286713203688580000	      7.19422217385310250000	    -11.79745262147996600000	      8.26131388136168350000	      7.33643161500135310000	    -19.05534047613841200000	      8.72489082719961040000	      0.00000000000002393024	     -0.00000000000002012340	     -2.68183736912285120000	     -8.45648419184828450000	     -1.08847764814396220000	    -64.01047174543056400000	      2.07276911958192710000	     -0.00000000000006544398	      0.00000000000123126009	    -27.92729997334145500000	      7.54587828608810090000	     -1.86749140114063890000	      1.58426284384787560000	      0.46535314858622040000	      0.03482907369140105000	     19.87026440892221400000	     45.04471189123586300000	    -81.98196512755380600000	   -227.06056711122037000000	    -66.38383526856070200000	     85.58818180636993100000	    160.67975261428413000000	    -12.92795389136970200000	      0.00000000000035758254	     -0.00000000000017669384	     81.87286276488688900000	     77.01242932890367900000	    -69.33229865947275500000	    181.94657339965269000000	    135.75579459816998000000	      0.00000000000004834078	      0.00000000000280079463	    -32.21324034663707200000	    -78.52773585297455800000	     71.23913520115854700000
      1.18249999999998030000	      0.03521803762983463600	      0.87692396910172976000	     -0.27386357693429475000	     20.43421401199715600000	     -2.74033643372452480000	      7.15317443350963520000	    -11.91101162745952300000	      8.22801327506464200000	      7.37919800306956030000	    -18.97491738664365000000	      8.71830972450947430000	      0.00000000000002411199	     -0.00000000000002022606	     -2.64107487734963400000	     -8.41796955347991020000	     -1.12323225981963650000	    -63.91911007641561300000	      2.14023639831825510000	     -0.00000000000006542010	      0.00000000000123266075	    -27.94343430849544800000	      7.50658850514595420000	     -1.83186778568006200000	      1.58375656956531800000	      0.46461031400216141000	      0.03474422503599510600	     19.97745885290647600000	     45.07746163467164300000	    -82.20822038879336400000	   -227.17470383208070000000	    -66.81785250409301100000	     85.47586024011985700000	    161.01185195721840000000	    -13.39615224045368300000	      0.00000000000036873361	     -0.00000000000021586139	     81.17752485876639000000	     77.04520711289076500000	    -69.68498838378424400000	    183.49949497636189000000	    134.11380413994831000000	      0.00000000000004752554	      0.00000000000280166345	    -32.32378368271166400000	    -78.63067236154296300000	     71.25492989271960200000
      1.18299999999998030000	      0.03600978904888212100	      0.87715608466868644000	     -0.27384622555026994000	     20.44422926642962700000	     -2.71779028724318120000	      7.11201473651210310000	    -12.02462654265468900000	      8.19449676529315600000	      7.42190597952439650000	    -18.89432940355207100000	      8.71149552135448250000	      0.00000000000002430164	     -0.00000000000002033113	     -2.60065939296913170000	     -8.37943989168912400000	     -1.15816146361958920000	    -63.82697286988203400000	      2.20688340372868150000	     -0.00000000000006539645	      0.00000000000123406159	    -27.95962341975571200000	      7.46724832860563210000	     -1.79623687730121780000	      1.58324885390408700000	      0.46384879898416587000	      0.03466167944086483200	     20.08331425029124500000	     45.10651050190525500000	    -82.42977728987568800000	   -227.28414426393786000000	    -67.24745051477886200000	     85.35456501143757200000	    161.33927397375120000000	    -13.85924059668545800000	      0.00000000000039101691	     -0.00000000000017562659	     80.48489581857650400000	     77.07254337754498900000	    -70.03064041764632500000	    185.04869803984221000000	    132.47469577131957000000	      0.00000000000004730581	      0.00000000000280205575	    -32.43230300997657200000	    -78.72931978197981100000	     71.26828832600928400000
      1.18349999999998020000	      0.03680128625580968100	      0.87738781479512151000	     -0.27382891486855354000	     20.45429709583640200000	     -2.69523054441778380000	      7.07074544174236670000	    -12.13829498491146800000	      8.16076657043022100000	      7.46455107442030390000	    -18.81357889169414600000	      8.70445129658879150000	      0.00000000000002449728	     -0.00000000000002041915	     -2.56058952907353540000	     -8.34089791739882000000	     -1.19326171895656040000	    -63.73406197636230500000	      2.27271160416327960000	     -0.00000000000006537288	      0.00000000000123546232	    -27.97586626605267000000	      7.42785990447376500000	     -1.76059990138547100000	      1.58273977143707170000	      0.46306865063851138000	      0.03458145149571271300	     20.18778677107911100000	     45.13183238871582900000	    -82.64662055731425000000	   -227.38886362027486000000	    -67.67257273477581200000	     85.22430746346262300000	    161.66202116026133000000	    -14.31742281140851200000	      0.00000000000038390159	     -0.00000000000017416995	     79.79498273736196300000	     77.09443616497972600000	    -70.36920396186415900000	    186.59431119168963000000	    130.83864984182628000000	      0.00000000000004753143	      0.00000000000280104531	    -32.53874915640847800000	    -78.82365259956984000000	     71.27922219843540600000
